<svg xmlns="http://www.w3.org/2000/svg" viewBox="0 0 167.88 28.91"><defs><style>.cls-1{fill:#03045e;}.cls-2{fill:#6795ac;}.cls-2,.cls-3,.cls-4,.cls-5,.cls-6{stroke:#231f20;stroke-miterlimit:10;stroke-width:0.25px;fill-rule:evenodd;}.cls-3{fill:#a8dadc;}.cls-4{fill:#73a6bf;}.cls-5{fill:#4e7282;}.cls-6{fill:#7eb6d2;}</style></defs><g id="Layer_2" data-name="Layer 2"><g id="Layer_1-2" data-name="Layer 1"><path class="cls-1" d="M167.21,22.11v3.52h-6.37V3h6.37V6.36l-.05,0a2,2,0,0,0-.58-.63,2.12,2.12,0,0,0-1.11-.3,2,2,0,0,0-1,.25,1.5,1.5,0,0,0-.75.7,1.93,1.93,0,0,0-.31,1.13,2.25,2.25,0,0,0,.08.61l.07.25-1.23-.13V5.81h-1.08V9.25h0l3,.31.53-.58a6.1,6.1,0,0,1-.28-.66,2.15,2.15,0,0,1-.07-.6,1.25,1.25,0,0,1,.1-.53.92.92,0,0,1,.35-.38,1,1,0,0,1,.58-.15,1.11,1.11,0,0,1,.58.15,1.16,1.16,0,0,1,.38.41,1.72,1.72,0,0,1,.12.63,1.69,1.69,0,0,1-.15.72,1.91,1.91,0,0,1-.48.56l.78.78a1.81,1.81,0,0,0,.53-.58l0,0V12.4l-2-1.44a3.16,3.16,0,0,0-1.76-.6,2.06,2.06,0,0,0-1.1.3,2.33,2.33,0,0,0-.78.81,2.27,2.27,0,0,0-.3,1.15,2.21,2.21,0,0,0,.3,1.14,2.28,2.28,0,0,0,.8.83,2.25,2.25,0,0,0,1.13.3,2.21,2.21,0,0,0,1.09-.28,1.93,1.93,0,0,0,1-1.73l0-.36,1.69,1.16v3.8l-2-1.41a3.16,3.16,0,0,0-1.76-.6,2.06,2.06,0,0,0-1.1.3,2.25,2.25,0,0,0-1.08,1.94,2.27,2.27,0,0,0,.3,1.15,2.38,2.38,0,0,0,.8.81,2.25,2.25,0,0,0,1.13.3,2,2,0,0,0,1.09-.28,1.93,1.93,0,0,0,1-1.73l0-.33,1.69,1.16V20.9h-6v2.26H162V22.08h5.21Z"/><path class="cls-1" d="M164.44,12.07a1,1,0,0,1,.15.55.92.92,0,0,1-.15.53,1.12,1.12,0,0,1-.4.41,1.39,1.39,0,0,1-1.13,0,1.26,1.26,0,0,1-.41-.38,1.09,1.09,0,0,1-.15-.56,1,1,0,0,1,.15-.55.89.89,0,0,1,.41-.38,1,1,0,0,1,.57-.15,1.09,1.09,0,0,1,.56.15A.92.92,0,0,1,164.44,12.07Z"/><path class="cls-1" d="M164.44,17.15a1.1,1.1,0,0,1,0,1.11,1.22,1.22,0,0,1-.4.38,1,1,0,0,1-.56.15,1,1,0,0,1-.57-.15.84.84,0,0,1-.41-.38,1,1,0,0,1-.15-.55,1.09,1.09,0,0,1,.15-.56,1.14,1.14,0,0,1,.41-.37,1.23,1.23,0,0,1,.57-.13,1.32,1.32,0,0,1,.56.13A1.19,1.19,0,0,1,164.44,17.15Z"/><path class="cls-1" d="M152.82,16.4l5.46,9.25h-4.83l-5.08-8.82h-2.24v8.82h-4.28V3h8a9.66,9.66,0,0,1,4.45.93A6.2,6.2,0,0,1,157,6.41a6.77,6.77,0,0,1,.9,3.47,6.85,6.85,0,0,1-1.3,4.1A6.2,6.2,0,0,1,152.82,16.4Zm.4-6.54a3.26,3.26,0,0,0-.9-2.44,4,4,0,0,0-2.87-.88h-3.68v6.79h3.68a4,4,0,0,0,2.84-.93A3.4,3.4,0,0,0,153.22,9.86Z"/><polygon class="cls-1" points="140.12 2.99 131.74 25.66 127.11 25.66 118.68 2.99 123.11 2.99 129.4 21.3 135.74 2.99 140.12 2.99"/><path class="cls-1" d="M115.31,3l8,22.66h-4.36l-1.58-4.5H108.6L107,25.65h-4.33l8-22.66Zm.93,14.59L113,8l-3.29,9.63Z"/><path class="cls-1" d="M103.54,13v3.07a10.93,10.93,0,0,1-1.91,4.81,11.54,11.54,0,0,1-4,3.47,11.71,11.71,0,0,1-5.48,1.28,12.18,12.18,0,0,1-5.94-1.46,10.94,10.94,0,0,1-4.27-4,11.27,11.27,0,0,1-1.56-5.87,10.79,10.79,0,0,1,1.56-5.81,11.09,11.09,0,0,1,4.27-4.05A12.58,12.58,0,0,1,92.12,3a12.38,12.38,0,0,1,6.54,1.76,10,10,0,0,1,4.2,5.33h-5a5.93,5.93,0,0,0-2.36-2.49,7.4,7.4,0,0,0-3.42-.78,7.54,7.54,0,0,0-3.8.93,6.48,6.48,0,0,0-2.62,2.62,8.05,8.05,0,0,0-.93,3.94,8.32,8.32,0,0,0,.93,4,6.74,6.74,0,0,0,2.62,2.65,7.85,7.85,0,0,0,3.8.9,6.83,6.83,0,0,0,4.65-1.53A6.48,6.48,0,0,0,99,16.42H90.53V13Z"/><polygon class="cls-2" points="58.48 15.39 51.26 12.59 55.25 10.14 58.48 15.39"/><polygon class="cls-3" points="33.53 0.14 17.11 4.58 0.07 15.66 33.53 0.14"/><polygon class="cls-4" points="33.53 0.14 45.28 7 21.77 5.59 33.53 0.14"/><polygon class="cls-5" points="26.23 5.86 35.19 11.79 45.28 7 26.23 5.86"/><polygon class="cls-3" points="45.28 7 53.09 6.64 55.82 11.06 45.28 7"/><polygon class="cls-5" points="54.71 10.63 53.29 11.24 53.2 10.05 54.71 10.63"/><polygon class="cls-4" points="53.29 11.24 45.28 7 53.2 10.05 53.29 11.24"/><polygon class="cls-6" points="53.29 11.24 45.84 16.19 45.28 7 53.29 11.24"/><polygon class="cls-2" points="45.84 16.19 35.19 11.79 45.28 7 45.84 16.19"/><polygon class="cls-5" points="45.84 16.19 29.55 17.71 35.19 11.79 45.84 16.19"/><polygon class="cls-6" points="35.19 11.79 24.4 15.34 29.55 17.71 35.19 11.79"/><polygon class="cls-5" points="60.75 15.91 67.99 9.25 54 8.12 60.75 15.91"/><polygon class="cls-4" points="54 8.12 58.48 15.39 60.75 15.91 54 8.12"/><polygon class="cls-2" points="67.99 9.25 73.11 28.49 60.75 15.91 67.99 9.25"/></g></g></svg>